# AST/ASF file generated using VICON BodyLanguage
# -----------------------------------------------
:version 1.10
:name VICON
:units
  mass 1.0
  length 0.45
  angle deg
:documentation
   .ast/.asf automatically generated from VICON data using
   VICON BodyBuilder and BodyLanguage model FoxedUp or BRILLIANT.MOD
:root
   order TX TY TZ RX RY RZ
   axis XYZ
   position 0 0 0  
   orientation 0 0 0 
:bonedata
  begin
     id 1 
     name lhipjoint
     direction 0.62366 -0.717238 0.310833 
     length 2.53602 
     axis 0 0 0  XYZ
  end
  begin
     id 2 
     name lfemur
     direction 0.34202 -0.939693 0  
     length 7.40817  
     axis 0 0 20  XYZ
    dof rx ry rz
    limits (-160.0 20.0)
           (-70.0 70.0)
           (-60.0 70.0)
  end
  begin
     id 3 
     name ltibia
     direction 0.34202 -0.939693 0   
     length 7.7045   
     axis 0 0 20   XYZ
    dof rx
    limits (-10.0 170.0)
  end
  begin
     id 4 
     name lfoot
     direction 0.0673888 -0.185149 0.980397   
     length 2.09456   
     axis -90 7.62852e-016 20   XYZ
    dof rx rz
    limits (-45.0 90.0)
           (-70.0 20.0)
  end
  begin
     id 5 
     name ltoes
     direction 1.53575e-011 -4.21994e-011 1   
     length 1.05543   
     axis -90 7.62852e-016 20   XYZ
    dof rx
    limits (-90.0 20.0)
  end
  begin
     id 6 
     name rhipjoint
     direction -0.489018 -0.800347 0.346851   
     length 2.27268  
     axis 0 0 0  XYZ 
  end
  begin
     id 7 
     name rfemur
     direction -0.34202 -0.939693 0   
     length 7.55487   
     axis 0 0 -20   XYZ
    dof rx ry rz
    limits (-160.0 20.0)
           (-70.0 70.0)
           (-70.0 60.0)
  end
  begin
     id 8 
     name rtibia
     direction -0.34202 -0.939693 0   
     length 7.78969   
     axis 0 0 -20   XYZ
    dof rx
    limits (-10.0 170.0)
 end
 begin
     id 9 
     name rfoot
     direction -0.0859318 -0.236096 0.967923   
     length 2.19143  
     axis -90 -7.62852e-016 -20   XYZ
    dof rx rz
    limits (-45.0 90.0)
           (-20.0 70.0)
  end
  begin
     id 10 
     name rtoes
     direction -1.53538e-011 -4.21989e-011 1   
     length 1.09845   
     axis -90 -7.62852e-016 -20   XYZ
    dof rx
    limits (-90.0 20.0)
  end
  begin
     id 11 
     name lowerback
     direction -0.00762546 0.998978 -0.0445553   
     length 1.98161   
     axis 0 0 0   XYZ
    dof rx ry rz
    limits (-20.0 45.0)
           (-30.0 30.0)
           (-30.0 30.0)
  end
  begin
     id 12 
     name upperback
     direction 0.0422361 0.998867 -0.0219156   
     length 1.97558   
     axis 0 0 0   XYZ
    dof rx ry rz
    limits (-20.0 45.0)
           (-30.0 30.0)
           (-30.0 30.0)
  end
  begin
     id 13 
     name thorax
     direction 0.0442465 0.999021 7.47603e-005   
     length 1.97799   
     axis 0 0 0   XYZ
    dof rx ry rz
    limits (-20.0 45.0)
           (-30.0 30.0)
           (-30.0 30.0)
  end
  begin
     id 14 
     name lowerneck
     direction 0.00312169 0.984641 0.174564   
     length 1.78995   
     axis 0 0 0   XYZ
    dof rx ry rz
    limits (-20.0 45.0)
           (-30.0 30.0)
           (-30.0 30.0)
  end
  begin
     id 15 
     name upperneck
     direction -0.0383028 0.985255 -0.166749   
     length 1.83053   
     axis 0 0 0   XYZ
    dof rx ry rz
    limits (-20.0 45.0)
           (-30.0 30.0)
           (-30.0 30.0)
  end
  begin
     id 16
     name head
     direction -0.0129546 0.997059 -0.0755386  
     length 1.84088  
     axis 0 0 0   XYZ
    dof rx ry rz
    limits (-20.0 45.0)
           (-30.0 30.0)
           (-30.0 30.0)
  end
  begin
     id 17 
     name lclavicle
     direction 0.912857 0.370519 -0.171488  
     length 3.51279  
     axis 0 0 0   XYZ
    dof ry rz
    limits (-20.0 10.0)
           (0.0 20.0)
  end
  begin
     id 18 
     name lhumerus
     direction 1 -4.48962e-011 3.64361e-027   
     length 4.95663   
     axis 180 -30 -90   XYZ
    dof rx ry rz
    limits (-60.0 90.0)
           (-90.0 90.0)
           (-90.0 90.0)
  end
  begin
     id 19
     name lradius
     direction 1 -4.48974e-011 5.97202e-027   
     length 3.38177   
     axis 180 -30 -90   XYZ
    dof rx
    limits (-10.0 170.0)
  end
  begin
     id 20
     name lwrist
     direction 1 -4.4896e-011 9.83288e-027   
     length 1.69088   
     axis -9.31221e-015 90 90   XYZ
    dof ry
    limits (-180.0 0.0)
 end
  begin
     id 21 
     name lhand
     direction 1 -4.4902e-011 1.96551e-026   
     length 0.662909   
     axis -1.25475e-014 90 90   XYZ
    dof rx rz
    limits (-90.0 90.0)
           (-45.0 45.0)
  end
  begin
     id 22 
     name lfingers
     direction 1 -4.48971e-011 3.93277e-026   
     length 0.534454   
     axis -2.50945e-014 90 90   XYZ
    dof rx
    limits (0.0 90.0)
  end
  begin
     id 23
     name lthumb
     direction 0.707107 -6.34933e-011 0.707107   
     length 0.767373   
     axis -90 45 -4.80359e-014   XYZ
    dof rx rz
    limits (-45.0 45.0)
           (-45.0 45.0)
  end
  begin
     id 24 
     name rclavicle
     direction -0.900919 0.395364 -0.178976   
     length 3.40627  
     axis 0 0 0   XYZ 
    dof ry rz
    limits (-10.0 20.0)
           (-20.0 0.0)
  end
  begin
     id 25 
     name rhumerus
     direction -1 -4.48969e-011 1.03875e-027  
     length 5.08365   
     axis 180 30 90   XYZ
    dof rx ry rz
    limits (-90.0 60.0)
           (-90.0 90.0)
           (-90.0 90.0)
  end
  begin
     id 26 
     name rradius
     direction -1 -4.48951e-011 5.02733e-027   
     length 3.35984   
     axis 180 30 90   XYZ
    dof rx
    limits (-10.0 170.0)
  end
  begin
     id 27 
     name rwrist
     direction -1 -4.49011e-011 9.82828e-027   
     length 1.67992   
     axis -9.31221e-015 -90 -90   XYZ
    dof ry
    limits (-180.0 0.0)
  end
  begin
     id 28
     name rhand
     direction -1 -4.48894e-011 1.96774e-026   
     length 0.820764   
     axis -1.25475e-014 -90 -90   XYZ
    dof rx rz
    limits (-90.0 90.0)
           (-45.0 45.0)
  end
  begin
     id 29
     name rfingers
     direction -1 -4.49095e-011 3.92833e-026   
     length 0.661721   
     axis -2.50945e-014 -90 -90   XYZ
    dof rx
    limits (0.0 90.0)
  end
  begin
     id 30
     name rthumb
     direction -0.707107 -6.34881e-011 0.707107   
     length 0.950103   
     axis -90 -45 4.80359e-014   XYZ
    dof rx rz
    limits (-45.0 45.0)
           (-45.0 45.0)
  end
:hierarchy
  begin
    root lhipjoint rhipjoint lowerback
    lhipjoint lfemur
    lfemur ltibia
    ltibia lfoot
    lfoot ltoes
    rhipjoint rfemur
    rfemur rtibia
    rtibia rfoot
    rfoot rtoes
    lowerback upperback
    upperback thorax
    thorax lowerneck lclavicle rclavicle
    lowerneck upperneck
    upperneck head
    lclavicle lhumerus
    lhumerus lradius
    lradius lwrist
    lwrist lhand lthumb
    lhand lfingers
    rclavicle rhumerus
    rhumerus rradius
    rradius rwrist
    rwrist rhand rthumb
    rhand rfingers
  end

#!OML:ASF I:\golf\golf\golf 2\Subject 1\2002-09-07\Subject1.ASF
:FULLY-SPECIFIED
:DEGREES
16
root -6.65049 17.8776 0.226099 -117.33 85.1104 -133.809
lowerback 2.18341 1.50008 -1.64108
upperback 4.08181 2.04852 4.93556
thorax 2.75317 0.963468 6.05416
lowerneck -13.8487 -3.34157 1.814
upperneck 40.7411 -2.38154 -2.69789
head 17.1057 -0.417531 -1.77747
rclavicle -2.38542e-014 -2.14687e-014
rhumerus -6.30699 4.83807 -99.8359
rradius 22.4094
rwrist -33.8995
rhand -17.333 -6.40822
rfingers 7.12502
rthumb 8.91399 -36.1999
lclavicle -2.38542e-014 -2.14687e-014
lhumerus -15.2112 -48.0703 113.415
lradius 33.5391
lwrist 50.2066
lhand -13.8894 64.8282
lfingers 7.12502
lthumb -167.764 85.5497
rfemur -25.7522 -0.614342 11.231
rtibia 24.6238
rfoot -7.96049 -14.7093
rtoes -5.29081
lfemur -27.6358 4.34477 -6.30836
ltibia 25.33
lfoot -8.83944 1.30964
ltoes -23.6719
17
root -6.65112 17.8777 0.227533 -117.128 85.0907 -133.611
lowerback 2.20231 1.50369 -1.61712
upperback 4.08218 2.05387 4.93783
thorax 2.74291 0.967176 6.04215
lowerneck -13.8367 -3.3346 1.84334
upperneck 40.7221 -2.38178 -2.69945
head 17.0911 -0.414268 -1.78285
rclavicle 1.03368e-014 5.56597e-015
rhumerus -6.30581 4.80443 -99.8205
rradius 22.3405
rwrist -33.9227
rhand -17.2862 -6.34594
rfingers 7.12502
rthumb 8.95916 -36.1357
lclavicle 1.03368e-014 5.56597e-015
lhumerus -15.1766 -48.1944 113.353
lradius 33.5148
lwrist 50.2666
lhand -13.6575 64.8989
lfingers 7.12502
lthumb -167.541 85.4925
rfemur -25.7593 -0.547587 11.2494
rtibia 24.6245
rfoot -7.95195 -14.7921
rtoes -5.64066
lfemur -27.6389 4.42708 -6.29034
ltibia 25.3113
lfoot -8.85026 1.24342
ltoes -23.7709
18
root -6.65132 17.8775 0.228706 -117.075 85.0717 -133.558
lowerback 2.20023 1.48876 -1.60696
upperback 4.09979 2.03421 4.95338
thorax 2.76457 0.957046 6.0536
lowerneck -13.8189 -3.33519 1.85548
upperneck 40.679 -2.36987 -2.75347
head 17.0613 -0.417487 -1.80622
rclavicle -1.07344e-014 7.95139e-015
rhumerus -6.23915 4.75682 -99.7824
rradius 22.2066
rwrist -33.8001
rhand -17.119 -6.22021
rfingers 7.12502
rthumb 9.12055 -36.003
lclavicle -1.07344e-014 7.95139e-015
lhumerus -15.1525 -48.3379 113.292
lradius 33.5185
lwrist 50.2974
lhand -13.5064 64.9083
lfingers 7.12502
lthumb -167.395 85.492
rfemur -25.755 -0.540995 11.2697
rtibia 24.617
rfoot -7.99979 -14.8081
rtoes -5.15996
lfemur -27.6415 4.50958 -6.28716
ltibia 25.3045
lfoot -8.83153 1.139
ltoes -23.668
19
root -6.65192 17.8783 0.227988 -117.29 85.0516 -133.773
lowerback 2.2416 1.48418 -1.58575
upperback 4.09004 2.02926 4.97505
thorax 2.7317 0.956097 6.0627
lowerneck -13.7966 -3.35161 1.83194
upperneck 40.6502 -2.36989 -2.80002
head 17.0388 -0.428535 -1.82182
rclavicle -2.38542e-015 -1.11319e-014
rhumerus -6.22729 4.59199 -99.7195
rradius 22.0849
rwrist -33.4788
rhand -16.8681 -6.21902
rfingers 7.12502
rthumb 9.36261 -35.9911
lclavicle -2.38542e-015 -1.11319e-014
lhumerus -15.0931 -48.1799 113.279
lradius 33.4352
lwrist 50.1471
lhand -13.1709 64.8695
lfingers 7.12502
lthumb -167.072 85.551
rfemur -25.7458 -0.563922 11.2728
rtibia 24.6101
rfoot -8.11685 -14.7983
rtoes -4.14901
lfemur -27.6423 4.43069 -6.26906
ltibia 25.3031
lfoot -8.83055 1.15629
ltoes -23.526
20
root -6.65239 17.8796 0.227321 -117.478 85.0594 -133.933
lowerback 2.29361 1.50247 -1.58594
upperback 4.10393 2.05482 4.98995
thorax 2.71347 0.969404 6.07704
lowerneck -13.8132 -3.36614 1.80422
upperneck 40.6305 -2.37825 -2.81854
head 17.032 -0.439533 -1.82656
rclavicle 1.47101e-014 5.32743e-014
rhumerus -6.21291 4.4759 -99.6333
rradius 22.018
rwrist -33.32
rhand -16.7322 -6.29179
rfingers 7.12502
rthumb 9.49374 -36.0579
lclavicle 1.47101e-014 5.32743e-014
lhumerus -14.8667 -47.7386 113.169
lradius 33.2752
lwrist 49.9898
lhand -12.4965 64.9864
lfingers 7.12502
lthumb -166.421 85.4764
rfemur -25.7136 -0.609555 11.2669
rtibia 24.6072
rfoot -8.31035 -14.7267
rtoes 0.468183
lfemur -27.6018 4.32987 -6.26641
ltibia 25.2968
lfoot -8.8198 1.25044
ltoes -23.4305
